<?xml version="1.0" encoding="iso-8859-1"?>
<!-- Generator: Adobe Illustrator 19.0.0, SVG Export Plug-In . SVG Version: 6.00 Build 0)  -->
<svg version="1.1" id="Layer_1" xmlns="http://www.w3.org/2000/svg" xmlns:xlink="http://www.w3.org/1999/xlink" x="0px" y="0px"
	 viewBox="0 0 512.001 512.001" style="enable-background:new 0 0 512.001 512.001;" xml:space="preserve">
<path style="fill:#836F5A;" d="M214.224,503.423c-3.57,0.76-79.642,9.234-98.111-50.787s52.971-163.902,177.691-174.29
	c124.72-10.388,176.661,68.1,182.432,131.584c5.771,63.483-33.473,79.642-100.463,66.036
	C279.625,456.437,268.473,491.881,214.224,503.423z"/>
<path style="fill:#564A3D;" d="M476.236,408.999c-2.69-29.58-15.409-62.414-40.838-88.001c7.519,16.009,11.796,32.678,13.228,48.426
	c5.771,63.483-33.473,79.642-100.463,66.036c-96.147-19.529-107.3,15.915-161.549,27.458c-2.556,0.543-42.261,5.036-71.396-14.47
	c0.272,1.098,0.565,2.187,0.895,3.258c18.467,60.02,94.541,51.547,98.111,50.787c54.249-11.543,65.403-46.986,161.549-27.458
	C442.763,488.643,482.007,472.484,476.236,408.999z"/>
<ellipse transform="matrix(-0.2101 -0.9777 0.9777 -0.2101 -156.548 408.3078)" style="fill:#836F5A;" cx="86.669" cy="267.394" rx="51.365" ry="39.822"/>
<path style="fill:#564A3D;" d="M125.606,258.926c-0.98-4.561-2.409-8.872-4.196-12.882c0.099,22.305-11.641,41.255-29.607,45.117
	c-17.966,3.862-36.455-8.59-45.53-28.966c0.02,4.391,0.489,8.908,1.469,13.469c5.962,27.734,28.225,46.47,49.726,41.849
	C118.97,312.891,131.568,286.66,125.606,258.926z"/>
<ellipse transform="matrix(-0.2101 -0.9777 0.9777 -0.2101 48.9421 431.9105)" style="fill:#836F5A;" cx="198.949" cy="196.184" rx="57.205" ry="44.35"/>
<path style="fill:#564A3D;" d="M242.312,187.193c-3.768-17.531-13.388-31.826-25.379-39.976c6.21,7.776,10.962,17.586,13.352,28.706
	c6.639,30.885-7.39,60.096-31.336,65.243c-10.354,2.226-20.863-0.421-29.998-6.629c11.038,13.821,26.701,21.192,42.025,17.898
	C234.921,247.29,248.951,218.079,242.312,187.193z"/>
<ellipse transform="matrix(-0.1297 -0.9916 0.9916 -0.1297 195.224 531.5539)" style="fill:#836F5A;" cx="330.889" cy="180.101" rx="57.207" ry="44.351"/>
<path style="fill:#564A3D;" d="M374.843,175.017c-2.266-17.325-10.323-32.037-21.175-41.198c2.775,6.143,4.76,12.955,5.712,20.237
	c4.098,31.325-12.268,59.294-36.552,62.47c-10.853,1.42-21.447-2.364-30.216-9.767c9.163,20.282,27.039,33.167,45.68,30.729
	C362.576,234.309,378.941,206.341,374.843,175.017z"/>
<ellipse transform="matrix(0.0631 -0.998 0.998 0.0631 210.1544 664.7006)" style="fill:#836F5A;" cx="459.104" cy="220.42" rx="52.998" ry="41.087"/>
<path style="fill:#564A3D;" d="M486.642,180.036c3.496,8.428,5.216,18.257,4.56,28.647c-1.845,29.21-21.7,51.73-44.347,50.299
	c-9.346-0.591-17.701-5.175-24.169-12.402c6.332,15.265,18.513,25.912,33.104,26.834c22.647,1.431,42.501-21.089,44.347-50.299
	C501.221,205.96,495.846,190.319,486.642,180.036z"/>
<g>
	<path style="fill:#836F5A;" d="M26.576,196.367l-14.241-79.611c-0.179-1,1.044-1.629,1.754-0.901l56.407,57.958
		c0.483,0.497,0.348,1.32-0.268,1.636l-42.166,21.654C27.445,197.419,26.698,197.05,26.576,196.367z"/>
	<path style="fill:#836F5A;" d="M147.024,115.08l-3.526-80.798c-0.044-1.015,1.253-1.475,1.858-0.66l48.198,64.944
		c0.413,0.557,0.17,1.354-0.483,1.586l-44.671,15.854C147.746,116.238,147.054,115.772,147.024,115.08z"/>
	<path style="fill:#836F5A;" d="M437.893,128.691l25.259-76.829c0.318-0.966,1.693-0.938,1.971,0.04l22.133,77.788
		c0.19,0.667-0.32,1.327-1.012,1.312l-47.392-0.959C438.158,130.03,437.677,129.349,437.893,128.691z"/>
	<path style="fill:#836F5A;" d="M294.27,89.765l18.386-78.758c0.231-0.99,1.603-1.083,1.967-0.134l28.906,75.533
		c0.247,0.647-0.201,1.349-0.893,1.397l-47.292,3.225C294.653,91.075,294.112,90.44,294.27,89.765z"/>
</g>
<path d="M434.786,310.678c-34.616-31.027-83.588-44.872-141.624-40.038c-67.477,5.62-128.478,39.612-163.18,90.928
	c-21.83,32.281-29.578,66.303-21.26,93.341c8.441,27.434,29.261,45.908,60.207,53.425c11.835,2.875,23.121,3.666,31.701,3.666
	c8.02,0,13.677-0.691,15.201-1.015l0,0c18.103-3.851,31.487-10.165,44.432-16.268c26.159-12.338,50.868-23.991,113.971-11.174
	c43.301,8.793,73.193,5.148,91.384-11.147c14.763-13.226,20.926-34.478,18.319-63.166
	C480.508,371.524,462.594,335.602,434.786,310.678z M455.3,460.878c-14.099,12.63-40.338,15.157-77.988,7.511
	c-68.131-13.838-96.352-0.529-123.644,12.342c-12.684,5.982-24.665,11.633-40.973,15.113c-1.666,0.244-72.493,8.793-89.194-45.481
	c-6.834-22.208,0.377-52.165,19.289-80.131c32.105-47.476,88.798-78.945,151.654-84.18c7.456-0.622,14.617-0.918,21.498-0.918
	c110.792,0,148.205,77.227,152.593,125.497C470.678,434.184,466.224,451.091,455.3,460.878z"/>
<path d="M133.171,257.387c-6.848-31.858-33.276-53.292-58.91-47.783c-25.635,5.51-40.92,35.911-34.073,67.77
	c6.125,28.492,27.908,48.647,50.782,48.647c2.702,0,5.42-0.281,8.129-0.864C124.734,319.646,140.018,289.245,133.171,257.387z
	 M95.849,310.038c-17.297,3.721-35.486-12.393-40.543-35.914c-5.055-23.522,4.905-45.683,22.204-49.401
	c1.673-0.36,3.351-0.534,5.03-0.534c15.662,0,30.945,15.203,35.512,36.448C123.109,284.159,113.148,306.32,95.849,310.038z"/>
<path d="M185.31,132.686c-13.97,3.003-25.505,12.656-32.481,27.181c-6.657,13.861-8.357,30.64-4.788,47.246
	c6.732,31.318,30.623,53.484,55.688,53.481c2.949,0,5.918-0.307,8.874-0.943c13.97-3.003,25.505-12.656,32.481-27.181
	c6.657-13.861,8.357-30.64,4.788-47.246s-12.014-31.204-23.778-41.106C213.764,133.744,199.282,129.683,185.31,132.686z
	 M216.135,155.951c9.153,7.704,15.765,19.254,18.618,32.523c2.852,13.27,1.57,26.517-3.609,37.302
	c-4.861,10.12-12.6,16.782-21.792,18.758c-19.743,4.244-40.461-14.003-46.194-40.671c-2.852-13.27-1.57-26.517,3.609-37.302
	c4.861-10.12,12.6-16.782,21.792-18.758c1.887-0.406,3.798-0.606,5.719-0.606C201.72,147.198,209.308,150.206,216.135,155.951z"/>
<path d="M299.58,229.744c9.932,9.849,21.866,15.087,34.11,15.087c1.862,0,3.733-0.122,5.604-0.366
	c28.473-3.725,47.86-35.637,43.216-71.139c-4.644-35.502-31.591-61.355-60.062-57.629c-28.473,3.725-47.86,35.638-43.216,71.14
	C281.436,203.678,288.662,218.917,299.58,229.744z M324.454,131.03c1.191-0.156,2.375-0.232,3.557-0.232
	c18.685,0,35.839,19.094,39.167,44.533c3.538,27.047-9.871,51.182-29.89,53.801c-9.322,1.216-18.847-2.463-26.819-10.369
	c-8.496-8.424-14.143-20.475-15.904-33.934C291.028,157.784,304.436,133.649,324.454,131.03z"/>
<path d="M462.948,159.793c-13.386-0.846-26.268,4.929-36.262,16.262c-9.505,10.78-15.29,25.435-16.29,41.265
	c-1.001,15.83,2.894,31.098,10.966,42.988c8.486,12.501,20.534,19.851,33.926,20.697c0.861,0.055,1.718,0.081,2.574,0.081
	c12.459,0,24.337-5.739,33.687-16.344c9.505-10.78,15.29-25.435,16.29-41.265C509.951,190.06,489.812,161.49,462.948,159.793z
	 M492.407,222.503c-0.786,12.425-5.209,23.795-12.456,32.015c-6.761,7.668-15.168,11.582-23.687,11.056
	c-8.514-0.538-16.365-5.493-22.106-13.95c-6.155-9.067-9.112-20.903-8.328-33.328c0.786-12.425,5.209-23.795,12.456-32.015
	c6.351-7.204,14.159-11.105,22.141-11.105c0.514,0,1.03,0.016,1.545,0.048C480.328,176.386,493.981,197.594,492.407,222.503z"/>
<path d="M79.098,176.06c0.396-2.419-0.379-4.884-2.09-6.641l-59.726-61.367c-2.369-2.434-6.05-3.037-9.073-1.486
	c-3.023,1.553-4.677,4.896-4.079,8.24l15.078,84.295c0.432,2.413,1.982,4.479,4.18,5.567c1.081,0.536,2.256,0.803,3.431,0.803
	c1.212,0,2.425-0.285,3.532-0.854l44.648-22.928C77.181,180.569,78.702,178.48,79.098,176.06z M32.59,186.085l-8.796-49.171
	l34.839,35.797L32.59,186.085z"/>
<path d="M142.763,122.885c1.294,0.872,2.801,1.321,4.321,1.321c0.87,0,1.744-0.147,2.585-0.445l47.3-16.787
	c2.311-0.82,4.096-2.688,4.811-5.034c0.714-2.345,0.274-4.892-1.188-6.861l-51.033-68.764c-2.025-2.728-5.595-3.816-8.795-2.678
	c-3.202,1.136-5.286,4.23-5.138,7.623l3.734,85.551C139.468,119.26,140.731,121.514,142.763,122.885z M181.944,95.897l-27.592,9.792
	l-2.178-49.905L181.944,95.897z"/>
<path d="M437.302,137.746l50.18,1.014c0.053,0.001,0.105,0.001,0.157,0.001c2.394,0,4.657-1.11,6.121-3.01
	c1.498-1.942,1.986-4.479,1.314-6.838l-23.435-82.364c-0.93-3.267-3.884-5.545-7.281-5.614c-3.375-0.058-6.44,2.088-7.501,5.315
	L430.112,127.6c-0.766,2.33-0.381,4.884,1.036,6.885C432.567,136.486,434.85,137.695,437.302,137.746z M463.67,75.044l13.67,48.045
	l-29.271-0.592L463.67,75.044z"/>
<path d="M293.953,98.855c0.174,0,0.35-0.006,0.527-0.019l50.073-3.414c2.446-0.167,4.669-1.483,5.989-3.55
	c1.321-2.067,1.582-4.637,0.706-6.927L320.642,4.968c-1.213-3.172-4.345-5.182-7.747-4.95c-3.39,0.231-6.231,2.647-7.003,5.955
	l-19.467,83.391c-0.558,2.388,0.051,4.899,1.639,6.767C289.538,97.866,291.695,98.855,293.953,98.855z M315.216,34.054
	l17.853,46.652l-29.209,1.992L315.216,34.054z"/>
<g>
</g>
<g>
</g>
<g>
</g>
<g>
</g>
<g>
</g>
<g>
</g>
<g>
</g>
<g>
</g>
<g>
</g>
<g>
</g>
<g>
</g>
<g>
</g>
<g>
</g>
<g>
</g>
<g>
</g>
</svg>
