<?xml version="1.0" encoding="iso-8859-1"?>
<!-- Generator: Adobe Illustrator 19.0.0, SVG Export Plug-In . SVG Version: 6.00 Build 0)  -->
<svg version="1.1" id="Layer_1" xmlns="http://www.w3.org/2000/svg" xmlns:xlink="http://www.w3.org/1999/xlink" x="0px" y="0px"
	 viewBox="0 0 512 512" style="enable-background:new 0 0 512 512;" xml:space="preserve">
<circle style="fill:#BF4F28;" cx="166.672" cy="390.781" r="87.771"/>
<circle style="fill:#FF7DBE;" cx="98.22" cy="121.219" r="87.771"/>
<circle style="fill:#3FD0FC;" cx="413.78" cy="266.418" r="87.771"/>
<path d="M166.669,489.003c-54.159,0-98.22-44.061-98.22-98.22s44.061-98.22,98.22-98.22s98.22,44.061,98.22,98.22
	S220.827,489.003,166.669,489.003z M166.669,313.46c-42.636,0-77.322,34.686-77.322,77.322s34.686,77.322,77.322,77.322
	s77.322-34.686,77.322-77.322S209.305,313.46,166.669,313.46z"/>
<path d="M131.444,445.32c-2.289,0-4.593-0.748-6.52-2.289c-15.97-12.774-25.13-31.817-25.13-52.247
	c0-36.874,29.999-66.873,66.873-66.873c5.771,0,10.449,4.678,10.449,10.449s-4.678,10.449-10.449,10.449
	c-25.351,0-45.976,20.624-45.976,45.976c0,14.046,6.3,27.141,17.285,35.928c4.507,3.605,5.238,10.179,1.633,14.686
	C137.547,443.976,134.51,445.32,131.444,445.32z"/>
<path d="M167.126,457.656c-2.674,0-5.349-1.02-7.388-3.06l-0.097-0.097c-4.08-4.08-4.08-10.697,0-14.778
	c4.08-4.08,10.697-4.08,14.778,0l0.097,0.097c4.08,4.08,4.08,10.697,0,14.778C172.474,456.636,169.8,457.656,167.126,457.656z"/>
<path d="M98.22,219.438c-54.159,0-98.22-44.061-98.22-98.22s44.061-98.22,98.22-98.22s98.22,44.061,98.22,98.22
	S152.38,219.438,98.22,219.438z M98.22,43.895c-42.636,0-77.322,34.686-77.322,77.322S55.584,198.54,98.22,198.54
	s77.322-34.686,77.322-77.322S140.856,43.895,98.22,43.895z"/>
<path d="M62.997,175.754c-2.288,0-4.593-0.748-6.52-2.289c-15.97-12.773-25.13-31.816-25.13-52.247
	c0-36.874,29.999-66.873,66.873-66.873c5.771,0,10.449,4.678,10.449,10.449s-4.678,10.449-10.449,10.449
	c-25.351,0-45.976,20.624-45.976,45.976c0,14.047,6.3,27.141,17.285,35.927c4.507,3.605,5.238,10.18,1.633,14.687
	C69.099,174.411,66.062,175.754,62.997,175.754z"/>
<path d="M98.678,188.091c-2.674,0-5.349-1.02-7.388-3.061l-0.097-0.097c-4.08-4.08-4.08-10.697,0-14.778
	c4.08-4.08,10.697-4.08,14.778,0l0.097,0.097c4.08,4.08,4.08,10.697,0,14.778C104.026,187.071,101.352,188.091,98.678,188.091z"/>
<path d="M413.78,364.642c-54.159,0-98.22-44.061-98.22-98.22s44.061-98.22,98.22-98.22S512,212.263,512,266.422
	S467.939,364.642,413.78,364.642z M413.78,189.099c-42.636,0-77.322,34.686-77.322,77.322s34.686,77.322,77.322,77.322
	s77.322-34.686,77.322-77.322S456.416,189.099,413.78,189.099z"/>
<path d="M378.556,320.958c-2.289,0-4.593-0.748-6.52-2.289c-15.97-12.774-25.13-31.817-25.13-52.247
	c0-36.874,29.999-66.873,66.873-66.873c5.771,0,10.449,4.678,10.449,10.449s-4.678,10.449-10.449,10.449
	c-25.351,0-45.975,20.624-45.975,45.976c0,14.046,6.3,27.141,17.285,35.928c4.507,3.605,5.238,10.179,1.633,14.686
	C384.658,319.615,381.621,320.958,378.556,320.958z"/>
<path d="M414.237,333.295c-2.674,0-5.349-1.02-7.388-3.06l-0.097-0.097c-4.08-4.08-4.08-10.697,0-14.778
	c4.08-4.08,10.697-4.08,14.778,0l0.097,0.097c4.08,4.08,4.08,10.697,0,14.778C419.585,332.275,416.911,333.295,414.237,333.295z"/>
<g>
</g>
<g>
</g>
<g>
</g>
<g>
</g>
<g>
</g>
<g>
</g>
<g>
</g>
<g>
</g>
<g>
</g>
<g>
</g>
<g>
</g>
<g>
</g>
<g>
</g>
<g>
</g>
<g>
</g>
</svg>
