<?xml version="1.0" encoding="iso-8859-1"?>
<!-- Generator: Adobe Illustrator 19.0.0, SVG Export Plug-In . SVG Version: 6.00 Build 0)  -->
<svg version="1.1" id="Layer_1" xmlns="http://www.w3.org/2000/svg" xmlns:xlink="http://www.w3.org/1999/xlink" x="0px" y="0px"
	 viewBox="0 0 505 505" style="enable-background:new 0 0 505 505;" xml:space="preserve">
<circle style="fill:#90DFAA;" cx="252.5" cy="252.5" r="252.5"/>
<path style="fill:#2B3B4E;" d="M218.6,235v-36.1c0-18.7,15.2-33.9,33.9-33.9s33.9,15.2,33.9,33.9V235h22.3v-36.1
	c0-31-25.2-56.2-56.2-56.2s-56.2,25.2-56.2,56.2V235H218.6z"/>
<path style="fill:#FF7058;" d="M324.2,334.7H180.8c-0.6,0-1.1-0.5-1.1-1.1V231.2c0-0.6,0.5-1.1,1.1-1.1h143.3c0.6,0,1.1,0.5,1.1,1.1
	v102.5C325.2,334.3,324.7,334.7,324.2,334.7z"/>
<path style="fill:#2B3B4E;" d="M266.8,273.3c0-7.9-6.4-14.3-14.3-14.3c-7.9,0-14.3,6.4-14.3,14.3c0,4.9,2.5,9.2,6.2,11.8l-2.8,20.7
	h11h11l-2.8-20.7C264.4,282.5,266.8,278.2,266.8,273.3z"/>
<path style="fill:#FFFFFF;" d="M252.5,437.1c-101.8,0-184.6-82.8-184.6-184.6S150.7,67.9,252.5,67.9s184.6,82.8,184.6,184.6
	S354.3,437.1,252.5,437.1z M252.5,83.7c-93.1,0-168.8,75.7-168.8,168.8s75.7,168.8,168.8,168.8s168.8-75.7,168.8-168.8
	S345.6,83.7,252.5,83.7z"/>
<g>
	<circle style="fill:#54C0EB;" cx="377.5" cy="127.5" r="33.3"/>
	<circle style="fill:#54C0EB;" cx="127.5" cy="377.5" r="33.3"/>
	<circle style="fill:#54C0EB;" cx="377.5" cy="377.5" r="33.3"/>
	<circle style="fill:#54C0EB;" cx="127.5" cy="127.5" r="33.3"/>
</g>
<g>
</g>
<g>
</g>
<g>
</g>
<g>
</g>
<g>
</g>
<g>
</g>
<g>
</g>
<g>
</g>
<g>
</g>
<g>
</g>
<g>
</g>
<g>
</g>
<g>
</g>
<g>
</g>
<g>
</g>
</svg>
