<?xml version="1.0" encoding="iso-8859-1"?>
<!-- Generator: Adobe Illustrator 19.0.0, SVG Export Plug-In . SVG Version: 6.00 Build 0)  -->
<svg version="1.1" id="Layer_1" xmlns="http://www.w3.org/2000/svg" xmlns:xlink="http://www.w3.org/1999/xlink" x="0px" y="0px"
	 viewBox="0 0 512.002 512.002" style="enable-background:new 0 0 512.002 512.002;" xml:space="preserve">
<circle style="fill:#324A5E;" cx="256.001" cy="256" r="256"/>
<path style="fill:#2B3B4E;" d="M375.159,482.614c77.988-41.093,132.184-121.247,136.547-214.445L363.533,119.994l-81.779,56.144
	l-109.249,45.68l49.269,48.737l-16.537,14.967l41.196,41.196l-9.825,17.344L375.159,482.614z"/>
<path style="fill:#FED8B2;" d="M256.001,512c51.809,0,100.012-15.405,140.309-41.863l-14.743-88.46
	c-3.406-20.44-18.615-36.914-38.719-41.939l-46.792-11.698c-9.44-2.36-16.063-10.843-16.063-20.575V276.04h-47.981v31.423
	c0,9.731-6.623,18.213-16.063,20.575l-46.792,11.698c-20.104,5.027-35.312,21.499-38.719,41.939l-14.743,88.46
	C155.988,496.595,204.192,512,256.001,512z"/>
<path style="fill:#EABC92;" d="M396.31,470.137l-14.743-88.46c-3.406-20.44-18.615-36.914-38.719-41.939l-46.792-11.698
	c-9.44-2.36-16.063-10.843-16.063-20.573v-31.423h-24.566v235.949c0.191,0,0.381,0.01,0.574,0.01
	C307.809,512,356.013,496.595,396.31,470.137z"/>
<path style="fill:#F4E3C3;" d="M256.001,306.855L256.001,306.855c-39.274,0-71.111-31.837-71.111-71.111V207.3
	c0-39.274,31.837-71.111,71.111-71.111l0,0c39.274,0,71.111,31.837,71.111,71.111v28.444
	C327.112,275.018,295.275,306.855,256.001,306.855z"/>
<path style="fill:#FED8B2;" d="M256.001,136.189L256.001,136.189c-0.193,0-0.383,0.014-0.574,0.014V306.84
	c0.191,0.002,0.381,0.014,0.574,0.014l0,0c39.274,0,71.111-31.837,71.111-71.111v-28.444
	C327.112,168.026,295.275,136.189,256.001,136.189z"/>
<path style="fill:#FD8469;" d="M256.001,281.859c-9.506,0-17.239-7.733-17.239-17.239h6.896c0,5.704,4.639,10.343,10.343,10.343
	s10.343-4.639,10.343-10.343h6.896C273.24,274.125,265.507,281.859,256.001,281.859z"/>
<path style="fill:#FC6F58;" d="M266.344,264.62c0,5.704-4.639,10.343-10.343,10.343c-0.193,0-0.383-0.019-0.574-0.029v6.896
	c0.193,0.007,0.381,0.029,0.574,0.029c9.506,0,17.239-7.733,17.239-17.239H266.344z"/>
<circle style="fill:#324A5E;" cx="225.402" cy="238.761" r="5.172"/>
<circle style="fill:#2B3B4E;" cx="286.6" cy="238.761" r="5.172"/>
<path style="fill:#F9B54C;" d="M381.567,381.676c-3.406-20.44-18.615-36.914-38.719-41.939l-46.792-11.698
	c-5.954-1.489-10.783-5.415-13.541-10.552h-18.756v24.278h-15.515v-24.278h-18.756c-2.758,5.137-7.587,9.064-13.541,10.552
	l-46.792,11.698c-20.104,5.027-35.312,21.499-38.719,41.939l-14.743,88.461C155.988,496.595,204.192,512,256.001,512
	s100.012-15.405,140.309-41.863L381.567,381.676z"/>
<path style="fill:#F4A200;" d="M396.31,470.137l-14.743-88.46c-3.406-20.44-18.615-36.914-38.719-41.939l-46.792-11.698
	c-5.954-1.489-10.783-5.415-13.541-10.552h-18.756v24.278h-8.332V511.99c0.191,0,0.381,0.01,0.574,0.01
	C307.809,512,356.013,496.595,396.31,470.137z"/>
<path style="fill:#D38802;" d="M248.243,341.764v170.093c2.579,0.078,5.16,0.143,7.758,0.143V341.764H248.243z"/>
<path style="fill:#F1543F;" d="M354.426,168.645L324.4,152.352l-0.057-0.455c-2.264-18.229-17.291-31.566-33.42-29.663
	l-18.092,2.136l-5.835-3.167c-10.776-5.847-24.397-2.267-33.101,7.761l-53.17,6.275c-18.094,2.136-29.26,22.268-23.278,41.968
	l12.023,39.596c1.622,5.342,6.501,8.657,11.347,7.713c0,0,38.043-19.056,88.824-25.733c34.347,21.283,55.677,45.34,55.677,45.34
	c3.722,2.403,8.859,1.21,11.945-2.77l22.876-29.515C371.522,197.154,368.781,176.433,354.426,168.645z"/>
<path style="fill:#D83E20;" d="M354.426,168.645L324.4,152.352l-0.057-0.455c-2.264-18.229-17.291-31.566-33.42-29.663
	l-18.092,2.136l-5.835-3.167c-3.632-1.97-7.589-2.848-11.569-2.791v82.606c4.606-0.84,9.35-1.593,14.214-2.232
	c34.347,21.283,55.677,45.34,55.677,45.34c3.722,2.403,8.859,1.21,11.945-2.77l22.876-29.515
	C371.522,197.154,368.781,176.433,354.426,168.645z"/>
<polygon style="fill:#C1321F;" points="305.51,188.728 324.435,110.533 363.531,119.996 378.35,144.275 "/>
<g>
</g>
<g>
</g>
<g>
</g>
<g>
</g>
<g>
</g>
<g>
</g>
<g>
</g>
<g>
</g>
<g>
</g>
<g>
</g>
<g>
</g>
<g>
</g>
<g>
</g>
<g>
</g>
<g>
</g>
</svg>
