<?xml version="1.0" encoding="iso-8859-1"?>
<!-- Generator: Adobe Illustrator 19.0.0, SVG Export Plug-In . SVG Version: 6.00 Build 0)  -->
<svg version="1.1" id="Layer_1" xmlns="http://www.w3.org/2000/svg" xmlns:xlink="http://www.w3.org/1999/xlink" x="0px" y="0px"
	 viewBox="0 0 512 512" style="enable-background:new 0 0 512 512;" xml:space="preserve">
<rect x="12.801" y="12.8" style="fill:#E9EBEF;" width="409.6" height="486.4"/>
<g>
	<polygon style="fill:#6FB0B6;" points="137.729,268.8 137.729,217.6 199.613,217.6 208.923,268.8 	"/>
	<polygon style="fill:#6FB0B6;" points="66.535,268.8 75.845,217.6 137.729,217.6 137.729,268.8 	"/>
</g>
<path style="fill:#FFE7E5;" d="M137.729,192c-35.294,0-64-28.706-64-64s28.706-64,64-64s64,28.706,64,64S173.023,192,137.729,192z"
	/>
<rect x="234.788" y="224.721" transform="matrix(0.7071 -0.7071 0.7071 0.7071 -75.8861 343.4628)" style="fill:#A0BF7C;" width="283.731" height="77.226"/>
<polygon style="fill:#FEDEA1;" points="243.278,330.914 309.078,396.715 210.382,429.628 "/>
<g>
	<path style="fill:#573A32;" d="M214.529,128c0-42.351-34.449-76.8-76.8-76.8s-76.8,34.449-76.8,76.8s34.449,76.8,76.8,76.8
		S214.529,170.351,214.529,128z M137.729,179.2c-28.279,0-51.2-22.921-51.2-51.2s22.921-51.2,51.2-51.2s51.2,22.921,51.2,51.2
		S166.009,179.2,137.729,179.2z"/>
	<rect x="230.401" y="76.8" style="fill:#573A32;" width="153.6" height="25.6"/>
	<path style="fill:#573A32;" d="M200.099,338.347c0.657-1.954,1.732-3.703,2.611-5.547H51.201v25.6h142.217L200.099,338.347z"/>
	<polygon style="fill:#573A32;" points="377.183,153.6 230.401,153.6 230.401,179.2 351.583,179.2 	"/>
	<path style="fill:#573A32;" d="M504.441,172.066l-36.506-36.506c-8.909-8.909-22.682-9.916-32.734-3.089V0H0.001v512h435.2V277.82
		l69.239-69.239C514.518,198.502,514.518,182.153,504.441,172.066z M409.601,486.4h-384V25.6h384v131.78L230.623,336.358
		c-2.842,2.833-4.975,6.289-6.238,10.095l-18.253,54.758c-0.913,2.748-1.203,5.572-1.178,8.38H51.201v25.6h179.2v-0.154
		c2.807,0.026,5.632-0.256,8.38-1.178l54.758-18.253c3.806-1.271,7.262-3.405,10.095-6.238l105.967-105.95V486.4z M248.876,354.62
		l36.506,36.506l-54.758,18.253L248.876,354.62z M303.643,372.873l-36.514-36.514l182.554-182.545l36.506,36.506L303.643,372.873z"
		/>
	<path style="fill:#573A32;" d="M61.347,225.826L51.201,281.6h173.056l-10.138-55.774c-2.219-12.177-12.817-21.026-25.19-21.026
		h-51.2h-51.2C74.156,204.8,63.557,213.649,61.347,225.826z M150.529,230.4h38.4l4.651,25.6h-43.051V230.4z M124.929,256H81.878
		l4.651-25.6h38.4V256z"/>
</g>
<g>
</g>
<g>
</g>
<g>
</g>
<g>
</g>
<g>
</g>
<g>
</g>
<g>
</g>
<g>
</g>
<g>
</g>
<g>
</g>
<g>
</g>
<g>
</g>
<g>
</g>
<g>
</g>
<g>
</g>
</svg>
