<?xml version="1.0" encoding="iso-8859-1"?>
<!-- Generator: Adobe Illustrator 19.0.0, SVG Export Plug-In . SVG Version: 6.00 Build 0)  -->
<svg version="1.1" id="Layer_1" xmlns="http://www.w3.org/2000/svg" xmlns:xlink="http://www.w3.org/1999/xlink" x="0px" y="0px"
	 viewBox="0 0 512 512" style="enable-background:new 0 0 512 512;" xml:space="preserve">
<circle style="fill:#F4E3C3;" cx="256" cy="256" r="256"/>
<path style="fill:#FED8B2;" d="M437.019,437.019c29.175-29.175,49.819-63.643,61.967-100.311L288.878,126.6L141.503,326.249
	L94.76,346.938l165.016,165.016C324.029,511.012,387.993,486.045,437.019,437.019z"/>
<g>
	<circle style="fill:#F1543F;" cx="170.667" cy="298.667" r="42.667"/>
	<circle style="fill:#F1543F;" cx="256" cy="298.667" r="42.667"/>
</g>
<g>
	<path style="fill:#C1321F;" d="M255.998,256c-0.193,0-0.381,0.012-0.574,0.016v85.304c0.191,0.002,0.381,0.014,0.574,0.014
		c23.564,0,42.667-19.103,42.667-42.667S279.562,256,255.998,256z"/>
	<circle style="fill:#C1321F;" cx="341.333" cy="298.667" r="42.667"/>
</g>
<circle style="fill:#FC6F58;" cx="213.333" cy="226.263" r="42.667"/>
<circle style="fill:#F1543F;" cx="298.667" cy="226.263" r="42.667"/>
<path style="fill:#9A4F03;" d="M385.291,362.02H126.705c-22.85,0-41.374-18.523-41.374-41.374l0,0h341.333l0,0
	C426.665,343.497,408.142,362.02,385.291,362.02z"/>
<path style="fill:#804000;" d="M255.426,320.646v41.374h129.867c22.85,0,41.374-18.523,41.374-41.374H255.426z"/>
<circle style="fill:#F1543F;" cx="256.431" cy="154.29" r="42.667"/>
<path style="fill:#C1321F;" d="M256.429,111.623c-0.336,0-0.669,0.017-1.005,0.026v85.283c0.334,0.007,0.667,0.026,1.005,0.026
	c23.564,0,42.667-19.103,42.667-42.667C299.096,130.725,279.993,111.623,256.429,111.623z"/>
<g>
</g>
<g>
</g>
<g>
</g>
<g>
</g>
<g>
</g>
<g>
</g>
<g>
</g>
<g>
</g>
<g>
</g>
<g>
</g>
<g>
</g>
<g>
</g>
<g>
</g>
<g>
</g>
<g>
</g>
</svg>
